<?xml version="1.0" encoding="utf-8"?>
<!-- Generator: Adobe Illustrator 23.0.1, SVG Export Plug-In . SVG Version: 6.00 Build 0)  -->
<svg version="1.1" id="Layer_1" xmlns="http://www.w3.org/2000/svg" xmlns:xlink="http://www.w3.org/1999/xlink" x="0px" y="0px"
	 viewBox="0 0 1000 1000" style="enable-background:new 0 0 1000 1000;" xml:space="preserve">
<style type="text/css">
	.st0{fill:#1474B6;}
</style>
<path id="path4" class="st0" d="M620.6,122.6c-36.6-55.8-45.4-63.3-120-63.3l0,0c-0.4,0-0.4,0-0.9,0c-0.4,0-0.4,0-0.9,0l0,0
	c-74.6,0-82.9,7.4-120,63.3C344.5,175,2.5,801.4,2.5,818.9c0,25.3,6.5,49.3,30.1,83.3c24,34.5,65.4,53.7,95.5,23.1
	C148.6,904.8,368,526.6,474,383.5l0,0c12.7-17.9,38.8-17.9,51.9,0l0,0c106,143.1,325.4,521.3,345.9,541.8
	c30.1,30.5,71.5,11.3,95.5-23.1c23.6-34,30.1-58,30.1-83.3C997.1,801.4,655.1,174.6,620.6,122.6z"/>
</svg>
