<?xml version="1.0" standalone="no"?>
<!DOCTYPE svg PUBLIC "-//W3C//DTD SVG 20010904//EN"
 "http://www.w3.org/TR/2001/REC-SVG-20010904/DTD/svg10.dtd">
<svg version="1.0" xmlns="http://www.w3.org/2000/svg"
 width="25" height="25" viewBox="0 0 318.000000 318.000000"
 preserveAspectRatio="xMidYMid meet">

<g transform="translate(0.000000,318.000000) scale(0.100000,-0.100000)"
fill="#000000" stroke="none">
<path d="M1906 2633 c-13 -44 -16 -89 -7 -103 14 -21 18 -13 26 58 5 40 3 62
-3 62 -6 0 -13 -8 -16 -17z"/>
<path d="M1986 2483 c-65 -286 -134 -458 -184 -458 -11 0 -24 -4 -28 -8 -4 -4
3 -7 15 -7 13 0 21 -4 19 -9 -6 -19 -130 -141 -142 -141 -7 0 -21 9 -31 20
-17 19 -17 21 1 41 10 12 50 49 88 82 38 32 60 57 50 53 -19 -6 -20 -3 -13 46
3 29 16 71 28 93 41 77 25 85 -39 19 -25 -25 -76 -73 -113 -106 -55 -47 -71
-57 -83 -47 -26 21 -14 46 48 100 102 89 105 92 58 61 -25 -16 -54 -39 -64
-51 -11 -11 -23 -21 -28 -21 -16 0 -8 62 12 87 11 14 20 40 20 57 0 30 0 30
-72 -40 -104 -101 -146 -134 -168 -134 -14 0 -20 7 -20 24 0 17 20 41 73 87
166 144 97 94 -130 -94 l-193 -160 0 -154 0 -153 304 0 304 0 50 58 c62 72 92
130 92 181 0 23 10 56 25 82 14 24 25 49 25 56 0 7 11 29 25 49 18 26 25 50
24 78 -1 56 73 302 90 298 7 -1 22 0 32 3 17 6 19 17 19 91 l0 84 -28 0 c-28
0 -28 0 -66 -167z"/>
<path d="M1851 2162 c-6 -12 -11 -27 -11 -34 1 -7 8 0 16 15 9 16 13 31 11 34
-3 2 -10 -4 -16 -15z"/>
</g>
</svg>
